<svg xmlns="http://www.w3.org/2000/svg" viewBox="0 0 160.18 94.82"><defs><style>.cls-1{font-size:6.99px;font-family:Gesher;}</style></defs><g id="Layer_2" data-name="Layer 2"><g id="Layer_1-2" data-name="Layer 1"><path d="M87.38,2.52,86.14,9.7a1.14,1.14,0,0,1-1.3.92l-7-1.21a1.12,1.12,0,0,1-.91-1.3L78.17.93A1.11,1.11,0,0,1,79.46,0l7,1.21A1.12,1.12,0,0,1,87.38,2.52Z"/><path d="M12.94,52.83H4.39a1.12,1.12,0,0,1-1.11-1.31L5.67,37.91a1.12,1.12,0,0,1,.85-.9l5.2-1.2a1.12,1.12,0,0,1,1.38,1l1,14.81A1.12,1.12,0,0,1,12.94,52.83Zm26.65-23.2L35.82,51.9a1.11,1.11,0,0,1-1.1.93H31a1.12,1.12,0,0,1-1.12-1L27.75,30.7c-.08-1-.4-1.62-.95-1.86a4.33,4.33,0,0,0-2.13-.34H8.33a1.11,1.11,0,0,1-1.1-1.32l2.15-11.4a1.13,1.13,0,0,1,1.37-.88l22.78,5.63a10.24,10.24,0,0,1,4.85,2.28A5.69,5.69,0,0,1,39.84,27,15,15,0,0,1,39.59,29.63Z"/><path d="M69.09,21.79,67.92,27.6a1.11,1.11,0,0,1-1.1.9H62.93q-2.93,0-2.62,3.75l1.52,19.37a1.12,1.12,0,0,1-1.12,1.21H51.64a1.12,1.12,0,0,1-1.12-1.24l1.69-15.41a9.93,9.93,0,0,1,3-5.79h0a1.12,1.12,0,0,0-.82-1.89H47.8a1.11,1.11,0,0,1-1.1-1.32l2-10.87a1.11,1.11,0,0,1,1.4-.87l18.21,5A1.12,1.12,0,0,1,69.09,21.79Z"/><path d="M90,24.09,85.9,51.88a1.13,1.13,0,0,1-1.11.95H81.44a1.12,1.12,0,0,1-1.12-1L78.73,29.55a1.12,1.12,0,0,0-1.11-1.05H74.53a1.12,1.12,0,0,1-1.1-1.33l2.06-10.85A1.14,1.14,0,0,1,77,15.47l10.55,3.69a3.49,3.49,0,0,1,2.62,3.5A10.16,10.16,0,0,1,90,24.09Z"/><path d="M124.93,29.57,121.1,51.9a1.12,1.12,0,0,1-1.11.93h-4a1.12,1.12,0,0,1-1.11-1L112.53,31a4.13,4.13,0,0,0-.62-1.93,2.13,2.13,0,0,0-1.75-.57H97.38a1.12,1.12,0,0,1-1.1-1.35l2.4-11.38a1.12,1.12,0,0,1,1.38-.85l19,5q6.12,1.6,6.12,6.85A16.56,16.56,0,0,1,124.93,29.57Z"/><path d="M118.52,60.19H2.68a1.12,1.12,0,0,0-1.1.87L0,67.8a1.12,1.12,0,0,0,1.09,1.37h46.2a1.34,1.34,0,0,1,1.33,1.46l-.26,3h0l-.25,2.73a1.23,1.23,0,0,0,1.32,1.34l6.88-.43a1.22,1.22,0,0,0,1.08-.83l1-2.81h0l.13-.39,1.07-3.13a1.33,1.33,0,0,1,1.26-.91h56.45a1.11,1.11,0,0,0,1.09-.87l1.24-6.74A1.12,1.12,0,0,0,118.52,60.19Z"/><text class="cls-1" transform="translate(85.65 67.14)"><tspan xml:space="preserve">                                                </tspan></text></g></g></svg>